<svg width="684" height="400" viewBox="0 0 684 400" fill="none" xmlns="http://www.w3.org/2000/svg">
<rect width="684" height="400" fill="white"/>
<path d="M137.2 382.86C132.213 383.087 128.36 382.18 125.64 380.14C122.693 378.1 121.673 374.247 122.58 368.58C122.58 367.9 122.807 366.88 123.26 365.52C123.713 364.16 124.28 363.253 124.96 362.8C124.733 368.467 125.413 372.433 127 374.7C128.587 376.967 131.193 378.1 134.82 378.1C143.66 378.1 152.727 375.267 162.02 369.6C171.54 363.933 180.947 356.34 190.24 346.82C187.973 346.14 185.027 344.78 181.4 342.74C178 340.927 175.393 339.453 173.58 338.32C164.513 331.747 159.98 324.153 159.98 315.54C159.98 308.967 162.927 301.827 168.82 294.12C174.713 286.413 184.347 278.593 197.72 270.66C206.333 265.447 216.307 260.8 227.64 256.72C238.973 252.64 249.513 249.353 259.26 246.86C262.66 240.287 265.947 233.827 269.12 227.48C272.293 221.133 275.353 214.787 278.3 208.44C279.433 205.947 281.473 201.187 284.42 194.16C287.367 187.133 290.653 178.86 294.28 169.34C297.907 159.82 301.307 149.733 304.48 139.08C307.88 128.2 310.713 117.66 312.98 107.46C315.247 97.26 316.38 88.1933 316.38 80.26C316.38 72.5533 315.02 66.5466 312.3 62.24C309.807 57.9333 305.273 55.78 298.7 55.78H298.36C296.547 55.78 295.64 55.2133 295.64 54.08C295.64 52.9467 296.773 52.1533 299.04 51.7C309.92 50.5666 317.513 53.1733 321.82 59.52C326.127 65.8667 328.28 74.2533 328.28 84.68C328.28 86.4933 328.167 88.42 327.94 90.46C327.94 92.5 327.827 94.6533 327.6 96.92C328.96 98.0533 329.867 99.98 330.32 102.7C331.68 109.953 333.04 119.473 334.4 131.26C335.987 143.047 337.8 155.967 339.84 170.02C341.88 184.073 344.26 198.353 346.98 212.86C349.927 227.14 353.327 240.627 357.18 253.32C361.26 265.787 366.02 276.327 371.46 284.94C372.593 286.753 374.18 289.133 376.22 292.08C378.26 294.8 380.753 297.293 383.7 299.56C386.647 301.827 389.933 302.96 393.56 302.96C397.413 302.96 401.38 301.373 405.46 298.2C409.087 295.253 412.487 291.173 415.66 285.96C418.833 280.747 421.78 275.193 424.5 269.3C425.86 266.807 427.107 265.56 428.24 265.56C429.373 265.56 430.167 266.24 430.62 267.6C431.3 268.733 431.527 269.867 431.3 271C430.393 273.947 428.467 277.46 425.52 281.54C422.8 285.393 419.967 289.02 417.02 292.42C414.073 295.593 411.693 297.86 409.88 299.22C405.8 302.393 401.833 304.66 397.98 306.02C394.353 307.607 390.953 308.4 387.78 308.4C380.3 308.4 373.727 305.567 368.06 299.9C362.62 294.007 357.86 287.887 353.78 281.54C348.113 272.473 343.58 261.027 340.18 247.2C337.007 233.373 334.513 218.413 332.7 202.32C330.887 186.227 329.413 170.36 328.28 154.72C327.373 139.08 326.353 124.8 325.22 111.88C322.5 124.573 318.76 137.607 314 150.98C309.24 164.353 304.367 176.707 299.38 188.04C294.62 199.147 290.653 207.76 287.48 213.88C282.493 224.08 277.053 234.28 271.16 244.48C281.587 241.987 292.467 239.72 303.8 237.68C315.133 235.64 325.107 233.713 333.72 231.9H334.74C335.647 231.9 336.1 232.24 336.1 232.92C336.1 233.6 335.533 234.507 334.4 235.64C333.267 236.773 331.793 237.567 329.98 238.02C320.233 239.833 309.693 241.987 298.36 244.48C287.027 246.747 276.373 249.24 266.4 251.96C255.973 269.867 245.433 286.867 234.78 302.96C224.127 319.053 212.453 333.333 199.76 345.8C208.373 348.52 219.367 349.88 232.74 349.88H233.42C235.233 349.88 236.14 350.333 236.14 351.24C236.14 352.6 234.78 353.28 232.06 353.28C225.713 353.507 219.48 353.167 213.36 352.26C207.24 351.58 201.573 350.447 196.36 348.86C186.387 358.607 176.3 366.427 166.1 372.32C156.127 378.44 146.493 381.953 137.2 382.86ZM193.64 343.42C204.52 332.087 215.06 318.827 225.26 303.64C235.687 288.453 245.433 272.587 254.5 256.04C251.553 256.947 248.493 257.967 245.32 259.1C242.147 260.233 239.087 261.593 236.14 263.18C232.287 264.993 227.073 267.6 220.5 271C213.927 274.4 207.353 278.027 200.78 281.88C194.433 285.507 189.56 288.793 186.16 291.74C181.627 295.82 178.34 299.787 176.3 303.64C174.26 307.493 173.24 311.233 173.24 314.86C173.24 318.033 173.807 321.093 174.94 324.04C176.3 326.987 177.887 329.82 179.7 332.54C180.833 333.9 182.873 335.713 185.82 337.98C188.993 340.473 191.6 342.287 193.64 343.42Z" fill="#7574A2"/>
<path d="M380.992 249.824C386.453 249.824 390.827 248.352 394.112 245.408C397.44 242.464 399.104 238.027 399.104 232.096C399.104 226.165 397.227 221.451 393.472 217.952C389.76 214.453 385.173 212.704 379.712 212.704C375.829 212.704 372.843 212.789 370.752 212.96V249.376C373.312 249.675 376.725 249.824 380.992 249.824ZM379.712 210.08C386.112 210.08 391.445 212.064 395.712 216.032C400.021 219.957 402.176 225.312 402.176 232.096C402.176 238.88 400.192 243.979 396.224 247.392C392.299 250.805 387.221 252.512 380.992 252.512C376.683 252.512 372.245 252.299 367.68 251.872V210.464C371.093 210.208 375.104 210.08 379.712 210.08ZM414.993 252V210.656C418.662 210.357 421.777 210.208 424.337 210.208C428.262 210.208 431.505 211.232 434.065 213.28C436.625 215.285 437.905 218.165 437.905 221.92C437.905 224.437 437.179 226.763 435.729 228.896C434.278 231.029 432.635 232.757 430.801 234.08C435.878 240.821 439.014 244.853 440.208 246.176C442.641 248.693 445.286 250.123 448.145 250.464L448.081 252.448C445.691 252.405 443.75 252.064 442.257 251.424C440.763 250.741 439.27 249.611 437.777 248.032C436.326 246.453 433.105 242.208 428.113 235.296C424.657 235.296 421.265 235.189 417.937 234.976V252H414.993ZM426.513 232.864C428.177 232.864 429.969 231.755 431.889 229.536C433.809 227.317 434.769 224.736 434.769 221.792C434.769 218.848 433.766 216.608 431.761 215.072C429.755 213.536 427.153 212.768 423.953 212.768C422.246 212.768 420.241 212.853 417.937 213.024V232.544C421.009 232.757 423.867 232.864 426.513 232.864ZM457.541 237.6L451.589 252H448.581L465.989 210.208H467.717L485.253 252H481.989L475.973 237.6H457.541ZM466.693 214.944C466.053 216.864 465.477 218.464 464.965 219.744L458.565 235.104H474.949L468.613 219.808C467.631 217.419 466.991 215.797 466.693 214.944ZM501.678 241.888L513.646 211.296H515.502L525.934 242.08L527.47 247.264C527.598 246.453 528.131 244.747 529.07 242.144L539.694 210.464H542.766L528.302 252.256H526.574C519.448 231.819 515.758 221.195 515.502 220.384C515.118 219.232 514.734 218.101 514.35 216.992C514.136 217.717 513.56 219.232 512.622 221.536L500.526 252.256H498.798L484.206 210.464H487.47L498.03 241.632C498.627 243.339 499.182 245.237 499.694 247.328C499.907 246.475 500.568 244.661 501.678 241.888ZM559.627 212.256C557.323 212.256 555.445 212.811 553.995 213.92C552.544 215.029 551.819 216.587 551.819 218.592C551.819 220.896 552.779 222.965 554.699 224.8C556.064 226.123 557.813 227.531 559.947 229.024C562.123 230.475 563.616 231.52 564.427 232.16C565.237 232.8 566.219 233.675 567.371 234.784C569.461 236.875 570.507 239.285 570.507 242.016C570.507 245.557 569.312 248.245 566.923 250.08C564.576 251.872 561.269 252.768 557.003 252.768C552.779 252.768 549.237 251.659 546.379 249.44L547.915 247.2C550.816 249.163 553.888 250.144 557.131 250.144C560.373 250.144 562.891 249.461 564.683 248.096C566.517 246.731 567.435 244.811 567.435 242.336C567.435 240.203 566.517 238.24 564.683 236.448C563.403 235.168 561.675 233.781 559.499 232.288C557.365 230.795 555.872 229.728 555.019 229.088C554.165 228.405 553.163 227.509 552.01 226.4C549.834 224.224 548.747 221.707 548.747 218.848C548.747 215.989 549.749 213.749 551.755 212.128C553.803 210.507 556.619 209.696 560.203 209.696C563.787 209.696 567.008 210.4 569.867 211.808L568.779 214.176C566.133 212.896 563.083 212.256 559.627 212.256Z" fill="#696969"/>
<rect x="316" y="164" width="129" height="44" fill="white"/>
<path d="M306.976 234.32C304.48 234.32 302.464 233.648 300.928 232.304C299.392 231.024 298.624 229.296 298.624 227.12C298.624 226.032 298.848 224.816 299.296 223.472C299.744 222.192 300.448 220.848 301.408 219.44C302.88 217.264 304.992 214.928 307.744 212.432C310.56 210 313.984 207.696 318.016 205.52C322.112 203.408 326.784 201.808 332.032 200.72C332.096 200.016 332.128 199.28 332.128 198.512C332.128 197.808 332.128 197.104 332.128 196.4C332.128 191.216 331.776 186.512 331.072 182.288C330.368 178 329.568 174.32 328.672 171.248C326.112 177.584 323.84 182.864 321.856 187.088C319.872 191.248 318.784 194.736 318.592 197.552C318.528 198 318.24 198.48 317.728 198.992C317.28 199.568 316.768 199.856 316.192 199.856C315.744 199.856 315.296 199.536 314.848 198.896C314.464 198.32 314.272 197.328 314.272 195.92C314.272 194.448 314.432 192.528 314.752 190.16C315.072 187.792 315.232 185.52 315.232 183.344C315.232 181.296 314.944 179.504 314.368 177.968C313.792 176.432 312.672 175.632 311.008 175.568C309.664 175.568 308.416 176.208 307.264 177.488C307.008 177.744 306.816 177.872 306.688 177.872C306.496 177.872 306.4 177.712 306.4 177.392C306.4 177.072 306.496 176.72 306.688 176.336C307.2 175.056 308.128 174.16 309.472 173.648C310.88 173.136 312.032 172.88 312.928 172.88C315.232 172.88 316.8 173.52 317.632 174.8C318.528 176.016 318.976 177.648 318.976 179.696C318.976 181.552 318.72 183.696 318.208 186.128C317.76 188.496 317.28 190.992 316.768 193.616C318.048 191.248 319.68 187.952 321.664 183.728C323.648 179.504 325.824 174.736 328.192 169.424L327.328 166.928V166.64C327.328 166 327.52 165.52 327.904 165.2C328.352 164.88 328.8 164.72 329.248 164.72C329.632 164.72 330.016 164.816 330.4 165.008C330.784 165.2 331.04 165.488 331.168 165.872C331.936 167.6 332.576 169.968 333.088 172.976C333.664 175.984 334.08 179.248 334.336 182.768C334.656 186.224 334.816 189.648 334.816 193.04C334.816 195.6 334.72 198 334.528 200.24C336.128 199.92 337.728 199.696 339.328 199.568C340.928 199.44 342.624 199.312 344.416 199.184H344.8C345.376 199.184 345.664 199.312 345.664 199.568C345.664 200.08 344.992 200.4 343.648 200.528C342.112 200.656 340.544 200.816 338.944 201.008C337.408 201.264 335.84 201.584 334.24 201.968C332.896 209.328 330.784 215.216 327.904 219.632C325.088 224.112 322.176 227.472 319.168 229.712C316.992 231.312 314.848 232.464 312.736 233.168C310.688 233.936 308.768 234.32 306.976 234.32ZM306.208 232.304C307.296 232.304 308.544 232.08 309.952 231.632C311.424 231.184 312.96 230.48 314.56 229.52C319.68 226.512 323.648 222.704 326.464 218.096C329.28 213.552 331.072 208.368 331.84 202.544C328.448 203.44 325.024 204.72 321.568 206.384C318.112 208.112 314.88 210.096 311.872 212.336C308.928 214.64 306.4 217.168 304.288 219.92C303.2 221.328 302.4 222.672 301.888 223.952C301.376 225.232 301.12 226.416 301.12 227.504C301.12 228.976 301.568 230.128 302.464 230.96C303.36 231.856 304.608 232.304 306.208 232.304ZM347.757 198.128C346.925 198.128 346.317 197.84 345.933 197.264C345.613 196.752 345.453 196.24 345.453 195.728C345.453 194.704 345.901 193.648 346.797 192.56C347.117 192.176 347.565 191.664 348.141 191.024C348.717 190.32 349.133 189.776 349.389 189.392C348.557 188.24 347.437 187.184 346.029 186.224C344.621 185.264 343.245 184.048 341.901 182.576C340.685 181.232 339.661 179.6 338.829 177.68C337.997 175.696 337.581 173.808 337.581 172.016C337.581 169.904 338.061 167.888 339.021 165.968C339.981 164.048 341.165 162.384 342.573 160.976C344.109 159.44 345.805 158.224 347.661 157.328C349.517 156.368 351.437 155.888 353.421 155.888C354.765 155.888 356.077 156.208 357.357 156.848C358.637 157.488 359.277 158.544 359.277 160.016C359.277 161.744 358.893 162.608 358.125 162.608C357.805 162.608 357.581 162.288 357.453 161.648C357.389 161.328 357.357 161.008 357.357 160.688C357.357 160.304 357.357 160.048 357.357 159.92C357.357 159.28 357.069 158.736 356.493 158.288C355.917 157.776 355.277 157.52 354.573 157.52C353.101 157.52 351.469 158.096 349.677 159.248C347.885 160.4 346.381 161.744 345.165 163.28C343.949 164.88 342.957 166.704 342.189 168.752C341.421 170.736 341.037 172.656 341.037 174.512C341.037 176.816 341.549 178.8 342.573 180.464C343.597 182.128 344.813 183.6 346.221 184.88C347.693 186.16 349.005 187.408 350.157 188.624C350.733 187.92 351.341 187.248 351.981 186.608C352.685 185.968 353.325 185.456 353.901 185.072C354.413 184.752 354.765 184.592 354.957 184.592C355.149 184.592 355.245 184.688 355.245 184.88C355.245 185.2 354.957 185.584 354.381 186.032C354.253 186.16 353.869 186.544 353.229 187.184C352.653 187.76 351.949 188.496 351.117 189.392C351.629 189.968 352.045 190.576 352.365 191.216C352.685 191.856 352.845 192.56 352.845 193.328C352.845 194.352 352.269 195.408 351.117 196.496C349.965 197.584 348.845 198.128 347.757 198.128ZM348.812 195.536C349.26 195.536 349.677 195.12 350.061 194.288C350.509 193.52 350.733 192.752 350.733 191.984C350.733 191.6 350.669 191.248 350.541 190.928C350.413 190.608 350.317 190.416 350.253 190.352C349.74 190.992 349.26 191.696 348.812 192.464C348.429 193.168 348.237 193.808 348.237 194.384C348.237 195.152 348.429 195.536 348.812 195.536ZM367.634 195.248C365.33 195.248 363.314 193.904 361.586 191.216C359.922 188.464 359.09 184.144 359.09 178.256C359.09 174.416 359.57 171.344 360.53 169.04C361.49 166.672 362.674 164.944 364.082 163.856C365.49 162.768 366.834 162.224 368.114 162.224C369.394 162.224 370.482 162.672 371.378 163.568C372.274 164.4 372.722 165.616 372.722 167.216C372.722 168.752 372.274 170.384 371.378 172.112C370.482 173.776 369.394 175.312 368.114 176.72C366.898 178.064 365.682 178.96 364.466 179.408C364.21 179.536 363.89 179.6 363.506 179.6C363.25 179.6 363.122 179.504 363.122 179.312C363.122 178.8 363.634 178.224 364.658 177.584C365.938 176.688 367.154 175.344 368.306 173.552C369.458 171.696 370.034 170.064 370.034 168.656C370.034 167.824 369.842 167.184 369.458 166.736C369.074 166.224 368.626 165.968 368.114 165.968C367.154 165.968 366.098 166.736 364.946 168.272C363.858 169.744 363.058 172.304 362.546 175.952C362.418 176.976 362.29 177.968 362.162 178.928C362.098 179.824 362.066 180.72 362.066 181.616C362.066 185.2 362.61 188.016 363.698 190.064C364.786 192.048 366.226 193.04 368.018 193.04C369.554 193.04 371.282 192.144 373.202 190.352C375.122 188.496 377.01 185.616 378.866 181.712C379.314 180.688 379.826 180.176 380.402 180.176C380.786 180.176 380.978 180.432 380.978 180.944C380.978 181.392 380.85 181.872 380.594 182.384C378.93 186.48 376.914 189.648 374.546 191.888C372.178 194.128 369.874 195.248 367.634 195.248ZM398.473 195.248C397.641 195.248 396.905 194.736 396.265 193.712C395.625 192.624 395.305 190.576 395.305 187.568C395.305 185.2 395.497 182.608 395.881 179.792C396.265 176.912 396.681 174.064 397.129 171.248C397.641 168.432 398.089 165.936 398.473 163.76C398.857 161.52 399.049 159.888 399.049 158.864C399.049 157.072 398.505 156.176 397.417 156.176C396.393 156.176 395.337 156.688 394.249 157.712C393.225 158.736 392.233 159.984 391.273 161.456C390.377 162.928 389.577 164.368 388.873 165.776C388.233 167.12 387.817 168.112 387.625 168.752C386.729 171.248 386.089 173.744 385.705 176.24C385.321 178.672 385.129 181.2 385.129 183.824C385.129 184.912 385.161 186.032 385.225 187.184C385.353 188.336 385.449 189.52 385.513 190.736C385.641 191.376 385.449 192.176 384.937 193.136C384.489 194.032 383.945 194.48 383.305 194.48C382.857 194.48 382.473 194.192 382.153 193.616C381.833 193.04 381.609 192.528 381.481 192.08C381.225 191.312 381.033 190.512 380.905 189.68C380.777 188.784 380.649 188.016 380.521 187.376C380.073 184.752 379.657 182.096 379.273 179.408C378.889 176.656 378.345 174 377.641 171.44C377.449 170.736 377.193 170 376.873 169.232C376.617 168.4 376.201 167.728 375.625 167.216C375.497 167.088 375.305 166.96 375.049 166.832C374.793 166.64 374.665 166.48 374.665 166.352C374.665 166.096 375.017 165.968 375.721 165.968C376.489 165.968 377.257 166.352 378.025 167.12C378.793 167.888 379.497 168.912 380.137 170.192C380.905 171.792 381.545 173.488 382.057 175.28C382.633 177.072 383.081 178.512 383.401 179.6C383.785 177.296 384.201 175.248 384.649 173.456C385.097 171.92 385.705 170.096 386.473 167.984C387.241 165.808 388.201 163.696 389.353 161.648C390.505 159.536 391.881 157.808 393.481 156.464C395.081 155.056 396.937 154.352 399.049 154.352C402.121 154.352 403.657 156.144 403.657 159.728C403.657 161.584 403.337 163.632 402.697 165.872C402.057 168.048 401.353 170.064 400.585 171.92C399.881 173.776 399.401 175.056 399.145 175.76C398.825 176.656 398.473 177.872 398.089 179.408C397.769 180.944 397.481 182.544 397.225 184.208C397.033 185.872 396.937 187.408 396.937 188.816C396.937 190.032 397.065 191.056 397.321 191.888C397.641 192.656 398.121 193.04 398.761 193.04C399.401 193.04 399.977 192.752 400.489 192.176C401.001 191.536 401.417 190.96 401.737 190.448C402.121 189.936 402.313 189.84 402.313 190.16C402.441 191.12 402.089 192.208 401.257 193.424C400.489 194.64 399.561 195.248 398.473 195.248Z" fill="#332D2D"/>
</svg>
